<mxfile host="app.diagrams.net" modified="2023-07-25T17:13:07.993Z" agent="Mozilla/5.0 (X11; Linux x86_64) AppleWebKit/537.36 (KHTML, like Gecko) Chrome/115.0.0.0 Safari/537.36" etag="4gfC5APiqJU1wV84D6u7" version="21.6.5" type="github">
  <diagram name="Page-1" id="0SfJD47DCbXslL_FjXvJ">
    <mxGraphModel dx="996" dy="582" grid="0" gridSize="10" guides="1" tooltips="1" connect="1" arrows="1" fold="1" page="1" pageScale="1" pageWidth="827" pageHeight="1169" math="0" shadow="0">
      <root>
        <mxCell id="0" />
        <mxCell id="1" parent="0" />
        <mxCell id="0KJ5-dRIGI20WEnanSaq-5" style="edgeStyle=orthogonalEdgeStyle;rounded=0;orthogonalLoop=1;jettySize=auto;html=1;exitX=1;exitY=0.5;exitDx=0;exitDy=0;entryX=0;entryY=0.5;entryDx=0;entryDy=0;" edge="1" parent="1" source="0KJ5-dRIGI20WEnanSaq-1" target="0KJ5-dRIGI20WEnanSaq-3">
          <mxGeometry relative="1" as="geometry" />
        </mxCell>
        <mxCell id="0KJ5-dRIGI20WEnanSaq-1" value="&lt;div style=&quot;text-align: start;&quot;&gt;&lt;font style=&quot;--darkreader-inline-color: #bbb5ac;&quot; data-darkreader-inline-color=&quot;&quot; face=&quot;Menlo, monospace&quot; color=&quot;#bfbab1&quot;&gt;{&lt;/font&gt;&lt;/div&gt;&lt;div style=&quot;text-align: start;&quot;&gt;&lt;font style=&quot;--darkreader-inline-color: #bbb5ac;&quot; data-darkreader-inline-color=&quot;&quot; face=&quot;Menlo, monospace&quot; color=&quot;#bfbab1&quot;&gt;&lt;span style=&quot;font-size: 11px;&quot;&gt;&lt;span style=&quot;&quot;&gt;&lt;span style=&quot;white-space: pre;&quot;&gt;&amp;nbsp;&amp;nbsp;&amp;nbsp;&amp;nbsp;&lt;/span&gt;&lt;/span&gt;“_id”: “30671”,&lt;/span&gt;&lt;/font&gt;&lt;/div&gt;&lt;div style=&quot;text-align: start;&quot;&gt;&lt;font style=&quot;--darkreader-inline-color: #bbb5ac;&quot; data-darkreader-inline-color=&quot;&quot; face=&quot;Menlo, monospace&quot; color=&quot;#bfbab1&quot;&gt;&lt;span style=&quot;font-size: 11px;&quot;&gt;&lt;span style=&quot;&quot;&gt;&lt;span style=&quot;white-space: pre;&quot;&gt;&amp;nbsp;&amp;nbsp;&amp;nbsp;&amp;nbsp;&lt;/span&gt;&lt;/span&gt;“department”: “Shoes”,&lt;/span&gt;&lt;/font&gt;&lt;/div&gt;&lt;div style=&quot;text-align: start;&quot;&gt;&lt;font style=&quot;--darkreader-inline-color: #bbb5ac;&quot; data-darkreader-inline-color=&quot;&quot; face=&quot;Menlo, monospace&quot; color=&quot;#bfbab1&quot;&gt;&lt;span style=&quot;font-size: 11px;&quot;&gt;&lt;span style=&quot;&quot;&gt;&lt;span style=&quot;white-space: pre;&quot;&gt;&amp;nbsp;&amp;nbsp;&amp;nbsp;&amp;nbsp;&lt;/span&gt;&lt;/span&gt;“category”:“Shoes/Women/Pumps”,&lt;/span&gt;&lt;/font&gt;&lt;/div&gt;&lt;div style=&quot;text-align: start;&quot;&gt;&lt;font style=&quot;--darkreader-inline-color: #bbb5ac;&quot; data-darkreader-inline-color=&quot;&quot; face=&quot;Menlo, monospace&quot; color=&quot;#bfbab1&quot;&gt;&lt;span style=&quot;font-size: 11px;&quot;&gt;&lt;span style=&quot;&quot;&gt;&lt;span style=&quot;white-space: pre;&quot;&gt;&amp;nbsp;&amp;nbsp;&amp;nbsp;&amp;nbsp;&lt;/span&gt;&lt;/span&gt;“brand”: “Calvin Klein”,&lt;/span&gt;&lt;/font&gt;&lt;/div&gt;&lt;div style=&quot;text-align: start;&quot;&gt;&lt;font style=&quot;--darkreader-inline-color: #bbb5ac;&quot; data-darkreader-inline-color=&quot;&quot; face=&quot;Menlo, monospace&quot; color=&quot;#bfbab1&quot;&gt;&lt;span style=&quot;font-size: 11px;&quot;&gt;&lt;span style=&quot;&quot;&gt;&lt;span style=&quot;white-space: pre;&quot;&gt;&amp;nbsp;&amp;nbsp;&amp;nbsp;&amp;nbsp;&lt;/span&gt;&lt;/span&gt;“thumbnail”:“http://cdn.../pump.jpg”,&lt;/span&gt;&lt;/font&gt;&lt;/div&gt;&lt;div style=&quot;text-align: start;&quot;&gt;&lt;font style=&quot;--darkreader-inline-color: #bbb5ac;&quot; data-darkreader-inline-color=&quot;&quot; face=&quot;Menlo, monospace&quot; color=&quot;#bfbab1&quot;&gt;&lt;span style=&quot;font-size: 11px;&quot;&gt;&lt;span style=&quot;&quot;&gt;&lt;span style=&quot;white-space: pre;&quot;&gt;&amp;nbsp;&amp;nbsp;&amp;nbsp;&amp;nbsp;&lt;/span&gt;&lt;/span&gt;“title”: “Evening Platform Pumps”,&lt;/span&gt;&lt;/font&gt;&lt;/div&gt;&lt;div style=&quot;text-align: start;&quot;&gt;&lt;font style=&quot;--darkreader-inline-color: #bbb5ac;&quot; data-darkreader-inline-color=&quot;&quot; face=&quot;Menlo, monospace&quot; color=&quot;#bfbab1&quot;&gt;&lt;span style=&quot;font-size: 11px;&quot;&gt;&lt;span style=&quot;&quot;&gt;&lt;span style=&quot;white-space: pre;&quot;&gt;&amp;nbsp;&amp;nbsp;&amp;nbsp;&amp;nbsp;&lt;/span&gt;&lt;/span&gt;“description”: “Perfect for a...,&lt;/span&gt;&lt;/font&gt;&lt;/div&gt;&lt;div style=&quot;text-align: start;&quot;&gt;&lt;font style=&quot;--darkreader-inline-color: #bbb5ac;&quot; data-darkreader-inline-color=&quot;&quot; face=&quot;Menlo, monospace&quot; color=&quot;#bfbab1&quot;&gt;&lt;span style=&quot;font-size: 11px;&quot;&gt;&lt;span style=&quot;&quot;&gt;&lt;span style=&quot;white-space: pre;&quot;&gt;&amp;nbsp;&amp;nbsp;&amp;nbsp;&amp;nbsp;&lt;/span&gt;&lt;/span&gt;“style”: “Designer”,&lt;/span&gt;&lt;/font&gt;&lt;/div&gt;&lt;div style=&quot;text-align: start;&quot;&gt;&lt;font style=&quot;--darkreader-inline-color: #bbb5ac;&quot; data-darkreader-inline-color=&quot;&quot; face=&quot;Menlo, monospace&quot; color=&quot;#bfbab1&quot;&gt;&lt;span style=&quot;font-size: 11px;&quot;&gt;&lt;span style=&quot;&quot;&gt;&lt;span style=&quot;white-space: pre;&quot;&gt;&amp;nbsp;&amp;nbsp;&amp;nbsp;&amp;nbsp;&lt;/span&gt;&lt;/span&gt;…&lt;/span&gt;&lt;/font&gt;&lt;/div&gt;&lt;div style=&quot;text-align: start;&quot;&gt;&lt;font style=&quot;--darkreader-inline-color: #bbb5ac;&quot; data-darkreader-inline-color=&quot;&quot; face=&quot;Menlo, monospace&quot; color=&quot;#bfbab1&quot;&gt;&lt;span style=&quot;font-size: 11px;&quot;&gt;}&lt;/span&gt;&lt;/font&gt;&lt;/div&gt;" style="rounded=0;whiteSpace=wrap;html=1;" vertex="1" parent="1">
          <mxGeometry x="87" y="122" width="287" height="292" as="geometry" />
        </mxCell>
        <mxCell id="0KJ5-dRIGI20WEnanSaq-2" value="Product Modal" style="text;html=1;align=center;verticalAlign=middle;resizable=0;points=[];autosize=1;strokeColor=none;fillColor=none;" vertex="1" parent="1">
          <mxGeometry x="133" y="96" width="95" height="26" as="geometry" />
        </mxCell>
        <mxCell id="0KJ5-dRIGI20WEnanSaq-3" value="&lt;div style=&quot;text-align: start;&quot;&gt;&lt;font style=&quot;--darkreader-inline-color: #bbb5ac;&quot; data-darkreader-inline-color=&quot;&quot; face=&quot;Menlo, monospace&quot; color=&quot;#bfbab1&quot;&gt;{&lt;/font&gt;&lt;/div&gt;&lt;div style=&quot;text-align: start;&quot;&gt;&lt;font style=&quot;--darkreader-inline-color: #bbb5ac;&quot; data-darkreader-inline-color=&quot;&quot; face=&quot;Menlo, monospace&quot; color=&quot;#bfbab1&quot;&gt;&lt;span style=&quot;font-size: 14px;&quot;&gt;&lt;span style=&quot;&quot;&gt;&lt;span style=&quot;white-space: pre;&quot;&gt;&amp;nbsp;&lt;/span&gt;&lt;/span&gt;“_id”:”93284847362823”,&lt;/span&gt;&lt;/font&gt;&lt;/div&gt;&lt;div style=&quot;text-align: start;&quot;&gt;&lt;font style=&quot;--darkreader-inline-color: #bbb5ac;&quot; data-darkreader-inline-color=&quot;&quot; face=&quot;Menlo, monospace&quot; color=&quot;#bfbab1&quot;&gt;&lt;span style=&quot;font-size: 14px;&quot;&gt;&lt;span style=&quot;&quot;&gt;&lt;span style=&quot;white-space: pre;&quot;&gt;&amp;nbsp;&lt;/span&gt;&lt;/span&gt;“itemId”: “30671”, &lt;/span&gt;&lt;/font&gt;&lt;span data-darkreader-inline-bgcolor=&quot;&quot; data-darkreader-inline-color=&quot;&quot; style=&quot;font-size: 14px; color: var(--darkreader-inline-color); font-family: Menlo, monospace; background-color: initial; --darkreader-inline-color: var(--darkreader-text--darkreader-inline-color); --darkreader-inline-bgcolor: initial;&quot;&gt;&lt;span style=&quot;white-space: pre;&quot;&gt;&amp;nbsp;&amp;nbsp;&lt;/span&gt;&lt;/span&gt;&lt;span data-darkreader-inline-bgcolor=&quot;&quot; data-darkreader-inline-color=&quot;&quot; style=&quot;font-size: 14px; color: var(--darkreader-inline-color); font-family: Menlo, monospace; background-color: initial; --darkreader-inline-color: var(--darkreader-text--darkreader-inline-color); --darkreader-inline-bgcolor: initial;&quot;&gt;“size”: 6.0,&lt;/span&gt;&lt;/div&gt;&lt;div style=&quot;text-align: start;&quot;&gt;&lt;font style=&quot;--darkreader-inline-color: #bbb5ac;&quot; data-darkreader-inline-color=&quot;&quot; face=&quot;Menlo, monospace&quot; color=&quot;#bfbab1&quot;&gt;&lt;span style=&quot;font-size: 14px;&quot;&gt;&lt;span style=&quot;&quot;&gt;&lt;span style=&quot;white-space: pre;&quot;&gt;&amp;nbsp;&amp;nbsp;&lt;/span&gt;&lt;/span&gt;“color”: “red”&lt;/span&gt;&lt;/font&gt;&lt;/div&gt;&lt;div style=&quot;text-align: start;&quot;&gt;&lt;br&gt;&lt;/div&gt;&lt;div style=&quot;text-align: start;&quot;&gt;&lt;font style=&quot;--darkreader-inline-color: #bbb5ac;&quot; data-darkreader-inline-color=&quot;&quot; face=&quot;Menlo, monospace&quot; color=&quot;#bfbab1&quot;&gt;&lt;span style=&quot;font-size: 14px;&quot;&gt;}&lt;/span&gt;&lt;/font&gt;&lt;/div&gt;" style="rounded=0;whiteSpace=wrap;html=1;" vertex="1" parent="1">
          <mxGeometry x="560" y="163" width="206" height="199" as="geometry" />
        </mxCell>
        <mxCell id="0KJ5-dRIGI20WEnanSaq-4" value="Varient" style="text;html=1;align=center;verticalAlign=middle;resizable=0;points=[];autosize=1;strokeColor=none;fillColor=none;" vertex="1" parent="1">
          <mxGeometry x="571" y="137" width="55" height="26" as="geometry" />
        </mxCell>
        <mxCell id="0KJ5-dRIGI20WEnanSaq-6" value="1 to N" style="text;html=1;align=center;verticalAlign=middle;resizable=0;points=[];autosize=1;strokeColor=none;fillColor=none;" vertex="1" parent="1">
          <mxGeometry x="436" y="231" width="50" height="26" as="geometry" />
        </mxCell>
      </root>
    </mxGraphModel>
  </diagram>
</mxfile>
